<svg xmlns="http://www.w3.org/2000/svg" width="43" height="43" viewBox="0 0 33 33">
  <g id="Group_95" data-name="Group 95" transform="translate(-798 -2119)">
    <g id="Ellipse_18" data-name="Ellipse 18" transform="translate(798 2119)" fill="none" stroke="#da2128" stroke-width="1">
      <circle cx="16.5" cy="16.5" r="16.5" stroke="none"/>
      <circle cx="16.5" cy="16.5" r="16" fill="none"/>
    </g>
    <path id="__TEMP__SVG__" d="M.936,14A.47.47,0,0,1,.6,13.863a.439.439,0,0,1-.144-.328.447.447,0,0,1,.137-.329L6.848,6.952.69.807A.564.564,0,0,1,.573.588a.427.427,0,0,1,0-.239A.571.571,0,0,1,.69.137.455.455,0,0,1,1.025,0,.455.455,0,0,1,1.36.137L7.833,6.624a.449.449,0,0,1,.1.157.491.491,0,0,1,.034.178.438.438,0,0,1-.034.171.472.472,0,0,1-.1.151L1.264,13.863a.449.449,0,0,1-.157.1A.474.474,0,0,1,.936,14Z" transform="translate(810.951 2129)" fill="#da2128"/>
  </g>
</svg>
